<mxfile host="Electron" agent="Mozilla/5.0 (Windows NT 10.0; Win64; x64) AppleWebKit/537.36 (KHTML, like Gecko) draw.io/24.7.17 Chrome/128.0.6613.36 Electron/32.0.1 Safari/537.36" version="24.7.17">
  <diagram name="Page-1" id="SLMjs8iJdiD4GJ3RGfW1">
    <mxGraphModel dx="1088" dy="588" grid="1" gridSize="10" guides="1" tooltips="1" connect="1" arrows="1" fold="1" page="1" pageScale="1" pageWidth="850" pageHeight="1100" math="0" shadow="0">
      <root>
        <mxCell id="0" />
        <mxCell id="1" parent="0" />
        <mxCell id="bRMNb42BUXSf3Dn9afHM-1" value="Mulai" style="whiteSpace=wrap;strokeWidth=2;" parent="1" vertex="1">
          <mxGeometry x="1032" y="20" width="98" height="49" as="geometry" />
        </mxCell>
        <mxCell id="bRMNb42BUXSf3Dn9afHM-2" value="Registrasi" style="whiteSpace=wrap;strokeWidth=2;" parent="1" vertex="1">
          <mxGeometry x="1017" y="119" width="128" height="49" as="geometry" />
        </mxCell>
        <mxCell id="bRMNb42BUXSf3Dn9afHM-61" style="edgeStyle=orthogonalEdgeStyle;rounded=0;orthogonalLoop=1;jettySize=auto;html=1;exitX=0;exitY=1;exitDx=0;exitDy=0;entryX=0.5;entryY=0;entryDx=0;entryDy=0;" parent="1" source="bRMNb42BUXSf3Dn9afHM-3" target="bRMNb42BUXSf3Dn9afHM-4" edge="1">
          <mxGeometry relative="1" as="geometry">
            <Array as="points">
              <mxPoint x="968" y="321" />
            </Array>
          </mxGeometry>
        </mxCell>
        <mxCell id="bRMNb42BUXSf3Dn9afHM-62" value="Valid" style="edgeLabel;html=1;align=center;verticalAlign=middle;resizable=0;points=[];" parent="bRMNb42BUXSf3Dn9afHM-61" vertex="1" connectable="0">
          <mxGeometry x="0.3757" y="-1" relative="1" as="geometry">
            <mxPoint as="offset" />
          </mxGeometry>
        </mxCell>
        <mxCell id="bRMNb42BUXSf3Dn9afHM-3" value="Validasi Role" style="rhombus;strokeWidth=2;whiteSpace=wrap;" parent="1" vertex="1">
          <mxGeometry x="1011" y="217" width="139" height="139" as="geometry" />
        </mxCell>
        <mxCell id="bRMNb42BUXSf3Dn9afHM-66" style="edgeStyle=orthogonalEdgeStyle;rounded=0;orthogonalLoop=1;jettySize=auto;html=1;exitX=0.5;exitY=1;exitDx=0;exitDy=0;entryX=0;entryY=0.5;entryDx=0;entryDy=0;" parent="1" source="bRMNb42BUXSf3Dn9afHM-4" target="bRMNb42BUXSf3Dn9afHM-6" edge="1">
          <mxGeometry relative="1" as="geometry" />
        </mxCell>
        <mxCell id="bRMNb42BUXSf3Dn9afHM-4" value="Tambahkan User" style="whiteSpace=wrap;strokeWidth=2;" parent="1" vertex="1">
          <mxGeometry x="879" y="429" width="178" height="49" as="geometry" />
        </mxCell>
        <mxCell id="bRMNb42BUXSf3Dn9afHM-67" style="edgeStyle=orthogonalEdgeStyle;rounded=0;orthogonalLoop=1;jettySize=auto;html=1;exitX=0.5;exitY=1;exitDx=0;exitDy=0;entryX=1;entryY=0.5;entryDx=0;entryDy=0;" parent="1" source="bRMNb42BUXSf3Dn9afHM-5" target="bRMNb42BUXSf3Dn9afHM-6" edge="1">
          <mxGeometry relative="1" as="geometry" />
        </mxCell>
        <mxCell id="bRMNb42BUXSf3Dn9afHM-5" value="Gagal Registrasi" style="whiteSpace=wrap;strokeWidth=2;" parent="1" vertex="1">
          <mxGeometry x="1107" y="429" width="174" height="49" as="geometry" />
        </mxCell>
        <mxCell id="bRMNb42BUXSf3Dn9afHM-68" style="edgeStyle=orthogonalEdgeStyle;rounded=0;orthogonalLoop=1;jettySize=auto;html=1;exitX=0.5;exitY=1;exitDx=0;exitDy=0;" parent="1" source="bRMNb42BUXSf3Dn9afHM-6" target="bRMNb42BUXSf3Dn9afHM-7" edge="1">
          <mxGeometry relative="1" as="geometry" />
        </mxCell>
        <mxCell id="bRMNb42BUXSf3Dn9afHM-6" value="Login" style="whiteSpace=wrap;strokeWidth=2;" parent="1" vertex="1">
          <mxGeometry x="1032" y="528" width="98" height="49" as="geometry" />
        </mxCell>
        <mxCell id="bRMNb42BUXSf3Dn9afHM-99" style="edgeStyle=orthogonalEdgeStyle;rounded=0;orthogonalLoop=1;jettySize=auto;html=1;exitX=1;exitY=0.5;exitDx=0;exitDy=0;" parent="1" source="bRMNb42BUXSf3Dn9afHM-7" edge="1">
          <mxGeometry relative="1" as="geometry">
            <mxPoint x="1280.0000000000002" y="726" as="targetPoint" />
          </mxGeometry>
        </mxCell>
        <mxCell id="bRMNb42BUXSf3Dn9afHM-101" value="Tidak" style="edgeLabel;html=1;align=center;verticalAlign=middle;resizable=0;points=[];" parent="bRMNb42BUXSf3Dn9afHM-99" vertex="1" connectable="0">
          <mxGeometry x="-0.0738" y="2" relative="1" as="geometry">
            <mxPoint as="offset" />
          </mxGeometry>
        </mxCell>
        <mxCell id="bRMNb42BUXSf3Dn9afHM-7" value="Login Berhasil?" style="rhombus;strokeWidth=2;whiteSpace=wrap;" parent="1" vertex="1">
          <mxGeometry x="1004" y="649" width="154" height="154" as="geometry" />
        </mxCell>
        <mxCell id="bRMNb42BUXSf3Dn9afHM-71" style="edgeStyle=orthogonalEdgeStyle;rounded=0;orthogonalLoop=1;jettySize=auto;html=1;exitX=0;exitY=0.5;exitDx=0;exitDy=0;entryX=0.5;entryY=0;entryDx=0;entryDy=0;" parent="1" source="bRMNb42BUXSf3Dn9afHM-8" target="bRMNb42BUXSf3Dn9afHM-9" edge="1">
          <mxGeometry relative="1" as="geometry" />
        </mxCell>
        <mxCell id="bRMNb42BUXSf3Dn9afHM-8" value="Role" style="rhombus;strokeWidth=2;whiteSpace=wrap;" parent="1" vertex="1">
          <mxGeometry x="1041" y="876" width="79" height="79" as="geometry" />
        </mxCell>
        <mxCell id="bRMNb42BUXSf3Dn9afHM-78" style="edgeStyle=orthogonalEdgeStyle;rounded=0;orthogonalLoop=1;jettySize=auto;html=1;exitX=0.5;exitY=1;exitDx=0;exitDy=0;entryX=0.5;entryY=0;entryDx=0;entryDy=0;" parent="1" source="bRMNb42BUXSf3Dn9afHM-9" target="bRMNb42BUXSf3Dn9afHM-14" edge="1">
          <mxGeometry relative="1" as="geometry" />
        </mxCell>
        <mxCell id="bRMNb42BUXSf3Dn9afHM-79" style="edgeStyle=orthogonalEdgeStyle;rounded=0;orthogonalLoop=1;jettySize=auto;html=1;exitX=0.5;exitY=1;exitDx=0;exitDy=0;entryX=0.5;entryY=0;entryDx=0;entryDy=0;" parent="1" source="bRMNb42BUXSf3Dn9afHM-9" target="bRMNb42BUXSf3Dn9afHM-13" edge="1">
          <mxGeometry relative="1" as="geometry" />
        </mxCell>
        <mxCell id="bRMNb42BUXSf3Dn9afHM-80" style="edgeStyle=orthogonalEdgeStyle;rounded=0;orthogonalLoop=1;jettySize=auto;html=1;exitX=0.5;exitY=1;exitDx=0;exitDy=0;entryX=0.5;entryY=0;entryDx=0;entryDy=0;" parent="1" source="bRMNb42BUXSf3Dn9afHM-9" target="bRMNb42BUXSf3Dn9afHM-12" edge="1">
          <mxGeometry relative="1" as="geometry" />
        </mxCell>
        <mxCell id="bRMNb42BUXSf3Dn9afHM-81" style="edgeStyle=orthogonalEdgeStyle;rounded=0;orthogonalLoop=1;jettySize=auto;html=1;exitX=0.5;exitY=1;exitDx=0;exitDy=0;entryX=0.5;entryY=0;entryDx=0;entryDy=0;" parent="1" source="bRMNb42BUXSf3Dn9afHM-9" target="bRMNb42BUXSf3Dn9afHM-11" edge="1">
          <mxGeometry relative="1" as="geometry" />
        </mxCell>
        <mxCell id="bRMNb42BUXSf3Dn9afHM-9" value="Admin" style="whiteSpace=wrap;strokeWidth=2;" parent="1" vertex="1">
          <mxGeometry x="723" y="1028" width="147" height="49" as="geometry" />
        </mxCell>
        <mxCell id="bRMNb42BUXSf3Dn9afHM-82" style="edgeStyle=orthogonalEdgeStyle;rounded=0;orthogonalLoop=1;jettySize=auto;html=1;exitX=0.5;exitY=1;exitDx=0;exitDy=0;entryX=0.5;entryY=0;entryDx=0;entryDy=0;" parent="1" source="bRMNb42BUXSf3Dn9afHM-10" target="bRMNb42BUXSf3Dn9afHM-16" edge="1">
          <mxGeometry relative="1" as="geometry" />
        </mxCell>
        <mxCell id="bRMNb42BUXSf3Dn9afHM-83" style="edgeStyle=orthogonalEdgeStyle;rounded=0;orthogonalLoop=1;jettySize=auto;html=1;exitX=0.5;exitY=1;exitDx=0;exitDy=0;entryX=0.5;entryY=0;entryDx=0;entryDy=0;" parent="1" source="bRMNb42BUXSf3Dn9afHM-10" target="bRMNb42BUXSf3Dn9afHM-15" edge="1">
          <mxGeometry relative="1" as="geometry" />
        </mxCell>
        <mxCell id="bRMNb42BUXSf3Dn9afHM-10" value="User" style="whiteSpace=wrap;strokeWidth=2;" parent="1" vertex="1">
          <mxGeometry x="1423" y="1028" width="135" height="49" as="geometry" />
        </mxCell>
        <mxCell id="bRMNb42BUXSf3Dn9afHM-86" style="edgeStyle=orthogonalEdgeStyle;rounded=0;orthogonalLoop=1;jettySize=auto;html=1;exitX=0.5;exitY=1;exitDx=0;exitDy=0;entryX=0.5;entryY=0;entryDx=0;entryDy=0;" parent="1" source="bRMNb42BUXSf3Dn9afHM-11" target="bRMNb42BUXSf3Dn9afHM-17" edge="1">
          <mxGeometry relative="1" as="geometry" />
        </mxCell>
        <mxCell id="bRMNb42BUXSf3Dn9afHM-89" style="edgeStyle=orthogonalEdgeStyle;rounded=0;orthogonalLoop=1;jettySize=auto;html=1;exitX=0.5;exitY=1;exitDx=0;exitDy=0;entryX=0.5;entryY=0;entryDx=0;entryDy=0;" parent="1" source="bRMNb42BUXSf3Dn9afHM-11" target="bRMNb42BUXSf3Dn9afHM-18" edge="1">
          <mxGeometry relative="1" as="geometry" />
        </mxCell>
        <mxCell id="bRMNb42BUXSf3Dn9afHM-11" value="Tambah Donasi" style="whiteSpace=wrap;strokeWidth=2;" parent="1" vertex="1">
          <mxGeometry x="205" y="1127" width="167" height="49" as="geometry" />
        </mxCell>
        <mxCell id="bRMNb42BUXSf3Dn9afHM-12" value="Lihat Donasi" style="whiteSpace=wrap;strokeWidth=2;" parent="1" vertex="1">
          <mxGeometry x="607" y="1127" width="148" height="49" as="geometry" />
        </mxCell>
        <mxCell id="bRMNb42BUXSf3Dn9afHM-13" value="Hapus Donasi" style="whiteSpace=wrap;strokeWidth=2;" parent="1" vertex="1">
          <mxGeometry x="850" y="1127" width="154" height="49" as="geometry" />
        </mxCell>
        <mxCell id="bRMNb42BUXSf3Dn9afHM-84" style="edgeStyle=orthogonalEdgeStyle;rounded=0;orthogonalLoop=1;jettySize=auto;html=1;exitX=0.5;exitY=1;exitDx=0;exitDy=0;entryX=0.5;entryY=0;entryDx=0;entryDy=0;" parent="1" source="bRMNb42BUXSf3Dn9afHM-14" target="bRMNb42BUXSf3Dn9afHM-21" edge="1">
          <mxGeometry relative="1" as="geometry" />
        </mxCell>
        <mxCell id="bRMNb42BUXSf3Dn9afHM-14" value="Keluar" style="whiteSpace=wrap;strokeWidth=2;" parent="1" vertex="1">
          <mxGeometry x="1070" y="1127" width="106" height="49" as="geometry" />
        </mxCell>
        <mxCell id="bRMNb42BUXSf3Dn9afHM-15" value="Lihat Donasi" style="whiteSpace=wrap;strokeWidth=2;" parent="1" vertex="1">
          <mxGeometry x="1506" y="1127" width="148" height="49" as="geometry" />
        </mxCell>
        <mxCell id="bRMNb42BUXSf3Dn9afHM-85" style="edgeStyle=orthogonalEdgeStyle;rounded=0;orthogonalLoop=1;jettySize=auto;html=1;exitX=0.5;exitY=1;exitDx=0;exitDy=0;entryX=0.5;entryY=0;entryDx=0;entryDy=0;" parent="1" source="bRMNb42BUXSf3Dn9afHM-16" target="bRMNb42BUXSf3Dn9afHM-21" edge="1">
          <mxGeometry relative="1" as="geometry" />
        </mxCell>
        <mxCell id="bRMNb42BUXSf3Dn9afHM-16" value="Keluar" style="whiteSpace=wrap;strokeWidth=2;" parent="1" vertex="1">
          <mxGeometry x="1322" y="1127" width="106" height="49" as="geometry" />
        </mxCell>
        <mxCell id="bRMNb42BUXSf3Dn9afHM-17" value="Input Nama Donatur &amp; Jumlah Donasi" style="whiteSpace=wrap;strokeWidth=2;" parent="1" vertex="1">
          <mxGeometry x="20" y="1225" width="257" height="45" as="geometry" />
        </mxCell>
        <mxCell id="bRMNb42BUXSf3Dn9afHM-18" value="Donasi Ditambahkan" style="whiteSpace=wrap;strokeWidth=2;" parent="1" vertex="1">
          <mxGeometry x="330" y="1225" width="205" height="45" as="geometry" />
        </mxCell>
        <mxCell id="bRMNb42BUXSf3Dn9afHM-19" value="Lihat Daftar Donasi" style="whiteSpace=wrap;strokeWidth=2;" parent="1" vertex="1">
          <mxGeometry x="582" y="1234" width="197" height="49" as="geometry" />
        </mxCell>
        <mxCell id="bRMNb42BUXSf3Dn9afHM-20" value="Hapus Donasi" style="whiteSpace=wrap;strokeWidth=2;" parent="1" vertex="1">
          <mxGeometry x="850" y="1234" width="154" height="49" as="geometry" />
        </mxCell>
        <mxCell id="bRMNb42BUXSf3Dn9afHM-21" value="Akhiri Program" style="whiteSpace=wrap;strokeWidth=2;" parent="1" vertex="1">
          <mxGeometry x="1180" y="1283" width="166" height="49" as="geometry" />
        </mxCell>
        <mxCell id="bRMNb42BUXSf3Dn9afHM-22" value="Lihat Daftar Donasi" style="whiteSpace=wrap;strokeWidth=2;" parent="1" vertex="1">
          <mxGeometry x="1481" y="1234" width="197" height="49" as="geometry" />
        </mxCell>
        <mxCell id="bRMNb42BUXSf3Dn9afHM-91" style="edgeStyle=orthogonalEdgeStyle;rounded=0;orthogonalLoop=1;jettySize=auto;html=1;exitX=0.5;exitY=1;exitDx=0;exitDy=0;entryX=0.5;entryY=0;entryDx=0;entryDy=0;" parent="1" source="bRMNb42BUXSf3Dn9afHM-23" target="bRMNb42BUXSf3Dn9afHM-24" edge="1">
          <mxGeometry relative="1" as="geometry" />
        </mxCell>
        <mxCell id="bRMNb42BUXSf3Dn9afHM-93" value="YA" style="edgeLabel;html=1;align=center;verticalAlign=middle;resizable=0;points=[];" parent="bRMNb42BUXSf3Dn9afHM-91" vertex="1" connectable="0">
          <mxGeometry x="-0.0574" y="2" relative="1" as="geometry">
            <mxPoint as="offset" />
          </mxGeometry>
        </mxCell>
        <mxCell id="bRMNb42BUXSf3Dn9afHM-92" style="edgeStyle=orthogonalEdgeStyle;rounded=0;orthogonalLoop=1;jettySize=auto;html=1;exitX=0.5;exitY=1;exitDx=0;exitDy=0;entryX=0.5;entryY=0;entryDx=0;entryDy=0;" parent="1" source="bRMNb42BUXSf3Dn9afHM-23" target="bRMNb42BUXSf3Dn9afHM-25" edge="1">
          <mxGeometry relative="1" as="geometry" />
        </mxCell>
        <mxCell id="bRMNb42BUXSf3Dn9afHM-95" value="TIDAK" style="edgeLabel;html=1;align=center;verticalAlign=middle;resizable=0;points=[];" parent="bRMNb42BUXSf3Dn9afHM-92" vertex="1" connectable="0">
          <mxGeometry x="0.0632" y="1" relative="1" as="geometry">
            <mxPoint as="offset" />
          </mxGeometry>
        </mxCell>
        <mxCell id="bRMNb42BUXSf3Dn9afHM-23" value="Donasi Tersedia?" style="rhombus;strokeWidth=2;whiteSpace=wrap;" parent="1" vertex="1">
          <mxGeometry x="598" y="1342" width="165" height="165" as="geometry" />
        </mxCell>
        <mxCell id="bRMNb42BUXSf3Dn9afHM-24" value="Tampilkan Donasi" style="whiteSpace=wrap;strokeWidth=2;" parent="1" vertex="1">
          <mxGeometry x="472" y="1636" width="184" height="49" as="geometry" />
        </mxCell>
        <mxCell id="bRMNb42BUXSf3Dn9afHM-25" value="Tidak Ada Donasi" style="whiteSpace=wrap;strokeWidth=2;" parent="1" vertex="1">
          <mxGeometry x="706" y="1636" width="181" height="49" as="geometry" />
        </mxCell>
        <mxCell id="bRMNb42BUXSf3Dn9afHM-26" value="Input Nomor Donasi" style="whiteSpace=wrap;strokeWidth=2;" parent="1" vertex="1">
          <mxGeometry x="827" y="1332" width="200" height="49" as="geometry" />
        </mxCell>
        <mxCell id="bRMNb42BUXSf3Dn9afHM-30" value="" style="curved=1;startArrow=none;endArrow=block;exitX=0.5;exitY=0.99;entryX=0.5;entryY=-0.01;rounded=0;" parent="1" source="bRMNb42BUXSf3Dn9afHM-1" target="bRMNb42BUXSf3Dn9afHM-2" edge="1">
          <mxGeometry relative="1" as="geometry">
            <Array as="points" />
          </mxGeometry>
        </mxCell>
        <mxCell id="bRMNb42BUXSf3Dn9afHM-31" value="" style="curved=1;startArrow=none;endArrow=block;exitX=0.5;exitY=0.99;entryX=0.5;entryY=0;rounded=0;" parent="1" source="bRMNb42BUXSf3Dn9afHM-2" target="bRMNb42BUXSf3Dn9afHM-3" edge="1">
          <mxGeometry relative="1" as="geometry">
            <Array as="points" />
          </mxGeometry>
        </mxCell>
        <mxCell id="bRMNb42BUXSf3Dn9afHM-37" value="Ya" style="curved=1;startArrow=none;endArrow=block;exitX=0.5;exitY=1;entryX=0.5;entryY=0;rounded=0;" parent="1" source="bRMNb42BUXSf3Dn9afHM-7" target="bRMNb42BUXSf3Dn9afHM-8" edge="1">
          <mxGeometry relative="1" as="geometry">
            <Array as="points" />
          </mxGeometry>
        </mxCell>
        <mxCell id="bRMNb42BUXSf3Dn9afHM-49" value="" style="curved=1;startArrow=none;endArrow=block;exitX=0.5;exitY=0.99;entryX=0.5;entryY=0.01;rounded=0;" parent="1" source="bRMNb42BUXSf3Dn9afHM-12" target="bRMNb42BUXSf3Dn9afHM-19" edge="1">
          <mxGeometry relative="1" as="geometry">
            <Array as="points" />
          </mxGeometry>
        </mxCell>
        <mxCell id="bRMNb42BUXSf3Dn9afHM-50" value="" style="curved=1;startArrow=none;endArrow=block;exitX=0.5;exitY=0.99;entryX=0.5;entryY=0.01;rounded=0;" parent="1" source="bRMNb42BUXSf3Dn9afHM-13" target="bRMNb42BUXSf3Dn9afHM-20" edge="1">
          <mxGeometry relative="1" as="geometry">
            <Array as="points" />
          </mxGeometry>
        </mxCell>
        <mxCell id="bRMNb42BUXSf3Dn9afHM-52" value="" style="curved=1;startArrow=none;endArrow=block;exitX=0.5;exitY=0.99;entryX=0.5;entryY=0.01;rounded=0;" parent="1" source="bRMNb42BUXSf3Dn9afHM-15" target="bRMNb42BUXSf3Dn9afHM-22" edge="1">
          <mxGeometry relative="1" as="geometry">
            <Array as="points" />
          </mxGeometry>
        </mxCell>
        <mxCell id="bRMNb42BUXSf3Dn9afHM-54" value="" style="curved=1;startArrow=none;endArrow=block;exitX=0.5;exitY=1;entryX=0.5;entryY=0;rounded=0;" parent="1" source="bRMNb42BUXSf3Dn9afHM-19" target="bRMNb42BUXSf3Dn9afHM-23" edge="1">
          <mxGeometry relative="1" as="geometry">
            <Array as="points" />
          </mxGeometry>
        </mxCell>
        <mxCell id="bRMNb42BUXSf3Dn9afHM-57" value="" style="curved=1;startArrow=none;endArrow=block;exitX=0.5;exitY=1;entryX=0.5;entryY=0;rounded=0;" parent="1" source="bRMNb42BUXSf3Dn9afHM-20" target="bRMNb42BUXSf3Dn9afHM-26" edge="1">
          <mxGeometry relative="1" as="geometry">
            <Array as="points" />
          </mxGeometry>
        </mxCell>
        <mxCell id="bRMNb42BUXSf3Dn9afHM-63" style="edgeStyle=orthogonalEdgeStyle;rounded=0;orthogonalLoop=1;jettySize=auto;html=1;exitX=1;exitY=1;exitDx=0;exitDy=0;entryX=0.542;entryY=-0.058;entryDx=0;entryDy=0;entryPerimeter=0;" parent="1" source="bRMNb42BUXSf3Dn9afHM-3" target="bRMNb42BUXSf3Dn9afHM-5" edge="1">
          <mxGeometry relative="1" as="geometry">
            <Array as="points">
              <mxPoint x="1115" y="320" />
              <mxPoint x="1201" y="320" />
            </Array>
          </mxGeometry>
        </mxCell>
        <mxCell id="bRMNb42BUXSf3Dn9afHM-64" value="Tidak Valid" style="edgeLabel;html=1;align=center;verticalAlign=middle;resizable=0;points=[];" parent="bRMNb42BUXSf3Dn9afHM-63" vertex="1" connectable="0">
          <mxGeometry x="0.3587" y="1" relative="1" as="geometry">
            <mxPoint as="offset" />
          </mxGeometry>
        </mxCell>
        <mxCell id="bRMNb42BUXSf3Dn9afHM-74" style="edgeStyle=orthogonalEdgeStyle;rounded=0;orthogonalLoop=1;jettySize=auto;html=1;exitX=1;exitY=0.5;exitDx=0;exitDy=0;entryX=0.445;entryY=0.057;entryDx=0;entryDy=0;entryPerimeter=0;" parent="1" source="bRMNb42BUXSf3Dn9afHM-8" target="bRMNb42BUXSf3Dn9afHM-10" edge="1">
          <mxGeometry relative="1" as="geometry" />
        </mxCell>
        <mxCell id="bRMNb42BUXSf3Dn9afHM-102" value="Kembali Login" style="whiteSpace=wrap;strokeWidth=2;" parent="1" vertex="1">
          <mxGeometry x="1282" y="701.5" width="98" height="49" as="geometry" />
        </mxCell>
      </root>
    </mxGraphModel>
  </diagram>
</mxfile>
